<?xml version="1.0" standalone="no"?>
<!DOCTYPE svg PUBLIC "-//W3C//DTD SVG 20010904//EN"
 "http://www.w3.org/TR/2001/REC-SVG-20010904/DTD/svg10.dtd">
<svg version="1.0" xmlns="http://www.w3.org/2000/svg"
 width="980.000000pt" height="980.000000pt" viewBox="0 0 980.000000 980.000000"
 preserveAspectRatio="xMidYMid meet">

<g transform="translate(0.000000,980.000000) scale(0.100000,-0.100000)"
fill="#000000" stroke="none">
<path d="M2 4898 l3 -4903 2 4897 3 4898 4898 3 4897 2 -4902 3 -4903 2 2
-4902z"/>
<path d="M6046 7853 c-11 -3 -42 -21 -69 -40 -43 -30 -53 -34 -74 -24 -13 6
-28 11 -34 11 -13 0 -49 -85 -49 -114 0 -13 -9 -31 -20 -41 -25 -22 -26 -44
-3 -60 17 -13 17 -14 0 -33 -17 -18 -17 -21 0 -50 10 -17 26 -33 35 -36 15 -3
18 -15 18 -70 0 -38 4 -66 10 -66 6 0 16 -12 22 -27 7 -16 24 -40 39 -54 25
-24 29 -25 44 -10 14 14 17 14 25 1 5 -8 25 -15 47 -15 37 0 38 -1 43 -44 4
-40 8 -46 35 -53 19 -4 31 -14 32 -25 2 -32 25 -138 34 -155 6 -12 5 -18 -1
-18 -5 0 -10 -7 -10 -16 0 -15 10 -14 58 3 8 4 12 -5 12 -25 0 -24 5 -31 23
-34 17 -2 21 -8 19 -28 -2 -14 -3 -49 -3 -78 1 -50 0 -52 -19 -42 -16 9 -22 7
-32 -11 -12 -19 -96 -69 -117 -69 -5 0 -11 8 -13 18 -3 17 -19 19 -195 21 -50
0 -83 15 -83 37 0 11 -4 12 -19 4 -28 -14 -102 -12 -131 5 -18 10 -59 14 -140
15 -66 0 -134 6 -160 14 -32 9 -53 10 -73 3 -22 -7 -32 -6 -46 7 -21 19 -41
21 -41 4 0 -8 -43 -9 -163 -4 -140 6 -199 3 -398 -19 -345 -37 -385 -42 -489
-65 -52 -11 -129 -27 -170 -34 -41 -8 -122 -26 -179 -42 -83 -22 -107 -25
-122 -16 -27 17 -37 15 -41 -10 -2 -19 -20 -29 -108 -59 -96 -33 -107 -35
-127 -21 -22 13 -23 13 -23 -11 0 -25 -20 -37 -65 -37 -10 0 -46 -13 -80 -29
-33 -16 -87 -39 -120 -51 -33 -13 -89 -40 -125 -61 -36 -21 -139 -73 -230
-115 -91 -43 -175 -85 -187 -94 -12 -9 -42 -25 -68 -34 -25 -10 -85 -42 -132
-72 -46 -29 -95 -56 -106 -60 -12 -3 -34 -18 -49 -32 -26 -24 -28 -24 -35 -6
-6 16 -8 15 -13 -11 -4 -23 -16 -35 -50 -53 -25 -13 -77 -48 -116 -78 -39 -30
-76 -54 -82 -54 -12 0 -72 -46 -152 -117 -32 -28 -72 -59 -88 -67 -16 -8 -32
-22 -35 -31 -4 -8 -18 -15 -34 -15 -22 0 -34 -9 -56 -45 -16 -24 -44 -58 -63
-74 -19 -17 -34 -35 -34 -40 0 -20 -250 -279 -275 -285 -14 -4 -25 -13 -25
-22 0 -30 -30 -71 -60 -84 -21 -9 -30 -19 -30 -36 0 -13 -6 -27 -14 -31 -16
-9 -226 -282 -226 -294 0 -4 6 -9 12 -11 8 -3 3 -10 -11 -18 -46 -24 -112
-100 -106 -119 4 -12 -12 -45 -44 -94 -27 -41 -56 -90 -64 -108 -21 -51 -40
-62 -90 -55 -49 8 -63 -2 -72 -50 -7 -39 8 -62 29 -45 13 11 16 7 22 -24 8
-43 -9 -90 -31 -82 -22 9 -32 -95 -11 -125 19 -26 21 -55 4 -60 -7 -3 -9 -14
-4 -31 9 -37 27 -34 20 3 -8 36 17 51 45 26 10 -9 34 -16 55 -16 30 0 38 -4
46 -26 7 -19 16 -25 33 -22 21 3 23 -2 33 -85 12 -94 30 -127 70 -127 54 0 75
28 93 123 8 45 7 89 -5 193 -15 130 -15 135 4 161 11 16 30 48 42 73 23 46 38
62 51 54 9 -5 2 -224 -17 -529 -8 -132 -12 -262 -8 -289 12 -91 82 -125 128
-63 19 26 21 41 20 165 -1 76 -7 238 -13 362 -11 197 -10 245 5 385 l16 160
47 73 c38 60 60 81 129 128 121 81 309 182 353 189 24 4 40 13 44 25 4 12 46
34 127 65 67 27 129 48 138 49 9 1 24 9 34 18 18 19 40 26 92 31 17 2 40 13
52 25 12 12 30 22 40 22 10 0 85 22 167 50 82 27 157 48 166 45 9 -3 22 1 28
9 9 10 22 13 42 9 17 -3 29 -1 29 5 0 5 41 18 92 27 51 9 97 23 103 30 6 8 56
20 123 29 62 9 149 25 193 37 45 12 94 18 110 15 15 -3 44 1 63 9 20 9 67 15
106 15 39 0 80 5 91 11 30 15 208 35 544 58 83 6 164 13 181 15 l32 4 -3 -81
c-14 -363 -16 -586 -6 -624 23 -84 115 -132 188 -97 93 46 111 176 68 499 -14
110 -30 222 -34 248 -5 32 -4 50 3 55 15 9 77 10 304 4 185 -5 195 -6 222 -28
32 -27 50 -31 50 -9 0 8 14 17 36 21 51 9 232 -2 248 -15 20 -17 27 -107 27
-359 0 -144 -6 -271 -16 -347 -18 -142 -19 -264 -4 -299 14 -30 55 -47 86 -35
57 21 62 81 38 414 -21 290 -20 342 11 433 44 134 89 181 139 148 13 -9 26
-12 30 -6 3 5 18 5 38 -2 63 -21 62 -16 62 -276 0 -208 2 -241 18 -269 30 -56
100 -79 144 -48 31 22 41 64 47 205 8 155 34 315 56 342 l17 21 129 -36 c71
-20 147 -39 169 -43 22 -3 51 -13 63 -21 22 -13 22 -16 8 -32 -19 -21 -23 -52
-4 -33 17 17 63 15 78 -3 21 -25 28 -17 23 27 -4 29 -3 39 5 34 7 -4 12 -14
12 -23 0 -10 6 -14 18 -11 11 3 23 -2 30 -13 10 -16 8 -20 -12 -25 -16 -4 -27
-17 -35 -42 -10 -33 -126 -166 -179 -204 -10 -7 -35 -35 -56 -63 -21 -27 -97
-115 -169 -195 -73 -80 -146 -163 -162 -185 -16 -22 -54 -67 -85 -100 -31 -33
-67 -77 -79 -97 -28 -47 -75 -88 -128 -112 -38 -17 -41 -20 -32 -43 8 -21 4
-33 -24 -72 -18 -25 -43 -50 -55 -56 -14 -6 -27 -26 -34 -49 -8 -27 -25 -48
-55 -70 -24 -17 -60 -43 -80 -58 -19 -16 -42 -28 -49 -28 -14 0 -17 -9 -31
-89 -7 -36 -17 -52 -56 -85 -44 -37 -49 -39 -59 -22 -9 17 -11 17 -25 -3 -13
-19 -13 -27 0 -71 14 -48 14 -51 -5 -61 -15 -8 -17 -13 -8 -25 18 -20 4 -64
-20 -64 -24 0 -25 -9 -5 -57 20 -48 20 -48 -22 -70 -29 -15 -39 -28 -50 -67
-15 -50 -11 -68 9 -48 19 19 28 14 28 -12 0 -14 5 -28 10 -31 6 -3 10 -15 10
-25 0 -25 65 -63 120 -70 43 -5 45 -7 48 -39 2 -18 -1 -38 -6 -43 -6 -6 -8
-17 -5 -25 5 -11 11 -9 27 12 18 22 27 26 45 20 20 -6 22 -12 18 -41 -5 -31 7
-58 15 -34 2 7 26 6 72 -2 56 -11 73 -18 90 -41 21 -28 21 -36 18 -370 -2
-188 1 -355 6 -371 17 -61 108 -91 153 -50 48 43 61 180 38 391 -14 129 -13
511 1 528 5 6 6 15 2 19 -4 4 -2 6 3 5 21 -6 85 25 85 42 0 10 6 20 13 22 6 3
2 6 -11 6 -19 1 -21 4 -12 20 8 16 5 23 -18 40 -26 19 -26 21 -12 48 20 37 77
44 104 14 16 -17 20 -48 27 -208 8 -199 18 -261 49 -323 33 -65 74 -61 110 11
23 44 33 120 50 360 11 162 30 254 75 355 21 48 27 55 40 44 13 -10 15 -9 15
9 0 11 4 21 10 21 13 0 81 47 95 67 11 14 16 15 28 5 12 -11 17 -11 24 0 14
23 93 71 120 74 15 2 31 10 36 19 6 12 16 15 33 11 19 -5 28 0 46 28 14 21 34
37 50 40 15 3 38 16 50 28 28 28 231 133 287 148 24 6 41 17 41 25 0 8 5 15
10 15 6 0 8 -12 4 -27 -4 -19 -3 -24 4 -15 8 12 13 12 30 1 24 -15 42 -5 24
13 -29 29 5 77 57 81 12 1 21 4 21 7 0 3 16 13 35 23 19 9 50 24 68 33 19 10
46 15 60 12 23 -4 27 -2 27 17 0 18 12 26 70 46 39 13 70 27 70 31 0 5 6 8 14
8 8 0 16 6 19 14 7 18 140 71 145 57 6 -19 22 -12 34 14 7 16 19 25 35 25 12
0 23 5 23 10 0 6 5 10 11 10 6 0 22 9 36 20 17 13 41 20 69 20 24 0 44 4 44
10 0 20 44 49 91 60 27 7 65 23 85 36 20 14 49 24 70 24 21 0 33 4 29 10 -7
11 6 18 45 23 14 1 38 15 54 30 16 14 44 29 62 33 19 3 54 21 78 40 l44 34 16
-47 c20 -58 21 -82 4 -65 -25 25 -27 10 -7 -40 22 -56 22 -42 -7 -473 -4 -65
-2 -86 13 -114 35 -67 70 -67 104 0 14 26 19 72 24 204 4 98 12 181 19 195 7
14 10 37 6 50 -3 14 -4 78 -2 142 3 107 6 119 28 143 13 14 24 37 24 51 0 24
1 24 29 9 22 -11 37 -12 56 -5 15 6 29 10 32 10 3 0 2 -39 -1 -87 -8 -119 -8
-111 3 -173 5 -30 10 -155 10 -278 1 -182 -3 -248 -20 -355 -12 -73 -22 -185
-23 -252 -1 -138 16 -192 66 -209 101 -35 141 84 126 369 -4 88 -17 305 -28
483 -14 227 -17 329 -10 343 8 13 7 19 0 19 -6 0 -8 5 -4 11 4 7 7 24 6 39 -1
26 1 28 37 23 l37 -5 -4 43 c-2 24 -6 51 -8 59 -8 24 -8 24 48 35 54 10 55 11
74 83 2 6 17 12 34 12 35 0 36 2 14 35 -14 22 -14 24 5 35 12 6 21 17 21 25 0
8 6 15 13 15 6 0 25 18 41 40 17 22 33 35 36 30 4 -6 14 -8 24 -4 14 5 16 15
10 68 -8 72 -9 76 -35 76 -14 0 -19 7 -19 25 0 19 -5 25 -21 25 -13 0 -18 4
-13 12 5 7 7 25 6 40 -2 23 2 28 20 28 13 0 28 8 34 18 10 16 5 23 -43 53 -39
25 -56 42 -60 63 -3 16 -14 31 -24 33 -17 5 -36 38 -31 55 4 17 -35 26 -78 18
-25 -5 -53 -9 -62 -10 -24 0 -23 27 1 35 30 9 34 34 7 44 -12 5 -29 23 -36 40
-17 43 -40 40 -40 -4 0 -19 -2 -35 -5 -35 -3 0 -24 9 -45 20 -30 16 -40 26
-40 45 0 14 -6 25 -13 25 -18 0 -47 36 -47 59 0 22 -45 45 -82 42 -22 -2 -34
8 -67 53 -22 30 -53 61 -68 68 -17 8 -30 24 -34 43 -3 17 -12 43 -18 58 l-11
28 -23 -26 -22 -26 -25 33 c-13 18 -23 40 -23 50 1 10 -5 18 -14 18 -27 0 -90
41 -102 66 -6 13 -17 24 -25 24 -8 0 -93 70 -188 157 -95 86 -188 165 -205
176 -22 13 -33 27 -33 42 0 17 -5 22 -18 19 -19 -5 -184 127 -190 152 -2 8
-12 14 -23 14 -20 0 -38 16 -77 66 -12 16 -42 43 -66 59 -78 53 -163 129 -187
167 -13 21 -29 38 -34 38 -6 0 -42 28 -80 63 -39 35 -77 66 -87 70 -9 3 -19
19 -23 36 -6 27 -11 31 -40 31 -26 0 -39 7 -55 30 -12 17 -28 30 -36 30 -7 0
-42 24 -76 53 -81 68 -223 176 -271 206 -20 12 -37 27 -37 32 0 5 -11 9 -25 9
-18 0 -25 5 -25 20 0 12 -7 20 -18 20 -29 0 -63 30 -61 53 3 44 -2 53 -52 87
-45 30 -69 57 -69 74 0 3 19 6 43 7 37 0 40 2 20 11 -13 6 -23 15 -23 19 0 5
-13 24 -30 42 -16 19 -30 44 -30 55 0 28 -17 37 -44 23 -17 -10 -28 -9 -51 3
-19 10 -34 12 -46 5 -11 -6 -27 -5 -44 1 -23 9 -25 13 -15 25 10 13 9 15 -11
14 -13 -1 -33 -4 -43 -6z m508 -696 c16 -23 49 -58 72 -77 24 -19 41 -40 39
-47 -2 -6 5 -13 15 -16 10 -2 40 -33 67 -68 26 -35 61 -77 76 -93 l28 -28 -26
6 c-30 8 -31 -1 -5 -34 16 -20 22 -22 29 -11 6 10 22 1 67 -39 61 -54 113
-110 114 -122 0 -3 -8 -9 -17 -11 -12 -3 -8 -5 9 -6 20 -1 48 -23 107 -84 120
-124 164 -187 129 -187 -6 0 -4 -8 6 -19 14 -16 15 -24 6 -40 -11 -22 -4 -87
10 -96 5 -3 6 5 3 16 -5 19 -3 21 20 15 22 -5 26 -3 29 21 2 14 8 28 14 30 16
5 84 -58 84 -78 0 -10 9 -34 21 -53 31 -53 47 -126 60 -275 10 -118 10 -158
-6 -296 -28 -253 -30 -373 -8 -415 20 -39 49 -48 94 -30 62 26 82 128 59 305
-5 39 -12 179 -16 313 -6 211 -5 242 8 242 15 0 178 -171 232 -242 16 -21 37
-38 47 -38 28 0 23 -19 -7 -26 -18 -5 -22 -10 -14 -18 8 -8 5 -15 -11 -27
l-22 -16 27 -5 c23 -5 28 -2 33 23 3 16 7 29 10 29 15 0 52 -29 102 -81 32
-32 63 -59 69 -59 7 0 12 -5 12 -10 0 -6 12 -22 26 -35 19 -17 28 -38 32 -70
4 -40 8 -45 29 -45 38 0 83 -28 83 -51 0 -12 8 -23 20 -26 11 -3 23 -16 26
-29 4 -15 14 -24 25 -24 27 0 24 -20 -3 -20 -19 -1 -16 -5 15 -21 29 -15 37
-25 35 -42 -2 -15 -10 -22 -27 -22 -60 0 -16 -58 52 -70 41 -7 42 -7 20 -22
-15 -10 -23 -26 -23 -43 0 -28 -15 -40 -51 -40 -15 0 -18 -7 -16 -37 2 -37 1
-38 -33 -38 -26 -1 -37 -6 -45 -23 -5 -12 -15 -20 -22 -18 -6 3 -17 -2 -24
-10 -17 -21 -84 -54 -108 -54 -11 0 -22 -4 -25 -9 -3 -4 -34 -18 -68 -31 -35
-12 -128 -55 -208 -95 -80 -40 -176 -82 -215 -94 -38 -13 -77 -25 -85 -28 -8
-4 -20 -5 -26 -4 -7 1 -11 -7 -10 -16 1 -14 -8 -19 -39 -21 -30 -2 -43 -8 -50
-25 -12 -27 -123 -72 -145 -59 -20 12 -40 4 -33 -14 4 -10 0 -12 -11 -8 -10 4
-25 -5 -43 -27 -27 -32 -177 -110 -265 -138 -21 -7 -38 -17 -38 -22 0 -5 -31
-25 -70 -44 -38 -19 -70 -40 -70 -45 0 -16 -43 -29 -57 -18 -16 13 -43 3 -43
-15 0 -8 -28 -27 -62 -42 -35 -15 -79 -38 -99 -52 -24 -15 -48 -23 -70 -22
-19 2 -44 -3 -56 -10 -21 -11 -23 -10 -23 14 0 17 -5 25 -17 25 -13 0 -11 6
10 28 15 15 27 38 27 50 0 25 12 28 29 8 10 -11 9 -16 -4 -24 -15 -8 -15 -12
-4 -30 8 -12 16 -22 20 -22 10 0 27 43 33 82 6 46 50 112 130 194 80 82 168
180 203 226 20 26 36 37 55 38 20 0 25 4 22 18 -6 22 128 170 162 178 13 3 21
10 18 15 -3 5 24 41 60 80 36 39 66 80 66 90 0 12 7 19 20 19 19 0 21 6 19 51
-2 33 2 53 10 59 15 9 13 37 -13 170 -9 47 -14 97 -11 111 5 22 3 27 -12 25
-9 0 -18 5 -19 12 -1 6 -2 17 -3 22 0 6 -4 9 -8 9 -19 -3 -36 2 -30 8 13 12
-71 54 -170 84 -24 7 -30 14 -26 29 4 16 0 20 -21 20 -16 0 -29 7 -34 18 -5
14 -14 16 -37 11 -16 -4 -22 -7 -12 -8 21 -1 13 -21 -9 -21 -8 0 -14 10 -14
25 0 16 -6 25 -15 25 -12 0 -13 -4 -5 -19 5 -11 10 -23 10 -26 0 -13 -88 6
-137 29 -34 17 -53 21 -65 15 -12 -6 -18 -6 -18 1 0 5 -7 10 -15 10 -10 0 -13
8 -11 28 2 15 1 20 -1 11 -3 -12 -22 -18 -75 -24 -63 -6 -74 -4 -100 15 -23
17 -37 20 -72 15 -32 -5 -47 -3 -58 8 -11 11 -18 13 -26 5 -8 -8 -25 -7 -59 3
-26 7 -52 12 -57 11 -5 -2 -16 0 -25 4 -20 9 -59 14 -136 17 -33 2 -64 5 -70
9 -5 3 -64 8 -130 12 -66 4 -145 11 -175 16 -49 8 -267 17 -562 24 -56 1 -102
7 -110 14 -10 8 -24 9 -49 2 -18 -6 -41 -7 -51 -4 -9 3 -33 1 -51 -4 -23 -7
-45 -6 -70 3 -36 12 -149 6 -205 -11 -23 -6 -23 -5 -22 52 1 33 -1 91 -5 129
-15 142 25 283 105 369 69 74 100 84 283 85 l157 2 12 -26 c11 -24 33 -30 33
-9 0 5 3 14 7 20 10 15 144 18 153 4 4 -7 11 -7 18 -2 7 5 45 6 92 1 44 -5
103 -10 130 -13 28 -2 67 -11 89 -20 21 -9 49 -13 61 -10 13 3 48 -1 77 -9 29
-8 88 -18 130 -21 108 -9 141 -22 135 -52 -5 -29 19 -55 29 -31 7 20 69 41 86
30 7 -4 24 -9 38 -10 89 -8 190 -22 209 -28 12 -4 24 -19 29 -38 9 -33 9 -33
75 -20 23 4 27 2 27 -16 0 -12 6 -21 15 -21 9 0 15 -9 15 -24 0 -13 6 -26 14
-29 7 -3 16 -20 20 -38 l6 -32 23 21 c21 20 25 20 43 7 11 -8 14 -15 7 -15 -7
0 -13 -11 -13 -25 0 -18 5 -25 18 -25 23 0 56 -35 47 -49 -3 -6 2 -11 12 -11
10 0 24 -4 32 -9 12 -8 13 -12 1 -25 -7 -9 -11 -18 -9 -19 2 -2 19 -15 38 -30
30 -25 34 -26 46 -11 8 12 20 15 37 11 19 -5 27 -2 35 15 8 18 13 11 42 -55
19 -42 40 -82 48 -88 22 -19 43 9 62 82 l16 63 40 2 c25 0 44 -5 51 -14 9 -12
18 -9 61 17 28 17 60 31 72 31 11 0 31 11 43 25 12 14 28 23 38 20 23 -7 38
33 26 73 -8 26 -7 35 4 42 8 5 18 6 22 4 4 -3 8 -1 8 4 0 6 -16 14 -36 19 -36
8 -36 8 -38 66 -1 37 3 57 10 57 12 0 24 32 24 65 -1 11 -12 32 -25 48 -25 28
-45 35 -45 16 0 -23 -83 3 -134 42 -28 22 -60 42 -71 45 -25 7 -105 122 -105
152 0 12 -6 22 -12 22 -7 0 -47 52 -88 115 -41 63 -78 115 -83 115 -5 0 -7 6
-4 13 2 6 -9 20 -24 29 -31 19 -102 124 -94 139 4 5 -14 34 -39 65 -25 31 -46
61 -46 68 0 20 31 106 38 106 4 0 20 -19 36 -43z m-2430 -857 c37 -14 66 -47
66 -75 0 -14 9 -43 19 -64 16 -30 22 -75 31 -219 7 -123 8 -187 1 -200 -16
-29 -220 -54 -261 -32 -16 9 -18 8 -13 -6 6 -16 -2 -17 -78 -11 -68 6 -89 4
-107 -9 -13 -9 -62 -19 -120 -25 -53 -6 -126 -14 -162 -20 -36 -5 -114 -16
-175 -24 -60 -8 -150 -26 -198 -40 -64 -19 -92 -23 -102 -15 -9 7 -16 6 -24
-4 -7 -8 -42 -19 -79 -25 -63 -11 -345 -96 -422 -127 -19 -8 -51 -13 -70 -12
-28 2 -34 0 -32 -13 2 -12 -9 -18 -40 -24 -24 -4 -48 -7 -54 -6 -7 1 -14 -5
-18 -14 -3 -8 -16 -15 -28 -15 -13 0 -115 -44 -228 -98 -113 -55 -222 -105
-243 -111 -21 -7 -51 -24 -68 -38 -17 -14 -65 -44 -107 -65 -42 -22 -94 -53
-114 -69 l-37 -29 -26 50 -25 50 25 0 c17 0 25 5 25 18 0 27 73 95 87 81 8 -8
13 -5 18 10 8 25 15 26 41 6 10 -8 28 -15 38 -15 18 0 17 3 -8 29 l-28 29 23
15 c20 15 24 15 50 -4 33 -23 47 -10 24 24 -15 24 -14 26 41 76 43 39 59 49
65 39 7 -10 9 -9 9 3 0 25 98 82 132 77 21 -4 34 2 53 24 14 15 25 37 25 47 0
11 12 28 28 39 43 29 150 82 167 82 8 0 15 6 15 14 0 14 68 53 210 121 47 22
90 45 95 51 6 6 46 26 90 44 44 17 130 56 190 85 251 121 425 189 666 259 85
24 167 49 182 55 16 6 48 11 71 11 26 0 67 11 102 27 39 18 78 27 114 28 30 1
66 7 80 13 32 14 52 14 84 2z m-2887 -1499 c-3 -15 -1 -33 4 -38 7 -7 -6 -24
-38 -51 -46 -38 -62 -46 -91 -43 -20 2 -10 42 13 55 11 6 24 17 28 24 19 29
70 82 79 82 6 0 8 -12 5 -29z m5021 -934 c10 -8 3 -16 -27 -33 -44 -24 -98
-44 -71 -25 8 6 11 11 6 11 -6 0 5 16 24 35 32 33 39 34 68 12z"/>
<path d="M6400 6025 c0 -8 4 -15 10 -15 5 0 7 7 4 15 -4 8 -8 15 -10 15 -2 0
-4 -7 -4 -15z"/>
<path d="M6217 5712 c-16 -2 -27 -6 -25 -10 2 -4 10 -19 18 -35 15 -31 37 -31
32 1 -2 13 3 22 14 24 29 5 -7 24 -39 20z"/>
<path d="M6683 5663 c-17 -6 -16 -33 2 -57 19 -26 28 -16 16 17 -8 21 -7 28 7
36 13 8 14 10 2 10 -8 0 -21 -3 -27 -6z"/>
<path d="M6426 4031 c-4 -7 -5 -15 -2 -18 9 -9 19 4 14 18 -4 11 -6 11 -12 0z"/>
<path d="M2731 5834 c0 -11 3 -14 6 -6 3 7 2 16 -1 19 -3 4 -6 -2 -5 -13z"/>
<path d="M1700 5129 c0 -5 5 -7 10 -4 6 3 10 8 10 11 0 2 -4 4 -10 4 -5 0 -10
-5 -10 -11z"/>
<path d="M1580 5066 c0 -2 7 -6 15 -10 8 -3 15 -1 15 4 0 6 -7 10 -15 10 -8 0
-15 -2 -15 -4z"/>
<path d="M6560 7430 c0 -5 5 -10 10 -10 6 0 10 5 10 10 0 6 -4 10 -10 10 -5 0
-10 -4 -10 -10z"/>
<path d="M6180 6831 c0 -10 8 -34 18 -53 9 -18 17 -34 17 -35 1 -1 10 0 22 3
19 5 20 9 11 35 -5 16 -23 38 -39 50 -29 20 -29 20 -29 0z"/>
<path d="M791 4564 c0 -11 3 -14 6 -6 3 7 2 16 -1 19 -3 4 -6 -2 -5 -13z"/>
<path d="M461 3974 c0 -11 3 -14 6 -6 3 7 2 16 -1 19 -3 4 -6 -2 -5 -13z"/>
<path d="M5050 3224 c0 -8 5 -12 10 -9 6 3 10 10 10 16 0 5 -4 9 -10 9 -5 0
-10 -7 -10 -16z"/>
<path d="M5146 2791 c-4 -7 -5 -15 -2 -18 9 -9 19 4 14 18 -4 11 -6 11 -12 0z"/>
<path d="M5187 2773 c-4 -3 -7 -12 -7 -20 0 -11 4 -11 20 -3 11 6 18 15 15 21
-7 11 -19 12 -28 2z"/>
</g>
</svg>
