<svg version="1.1" id="Layer_1" xmlns="http://www.w3.org/2000/svg" xmlns:xlink="http://www.w3.org/1999/xlink" x="0px" y="0px"
	 width="100%" viewBox="0 0 612 306" enable-background="new 0 0 612 306" xml:space="preserve">
<path fill="#080808" opacity="1.000000" stroke="none" d="M117.022202,141.850281 C120.769958,141.736008 124.517723,141.621735 126.823174,141.551453 C130.141861,142.045624 132.036362,142.497818 133.946228,142.576385 C137.815903,142.735596 141.693817,142.702988 145.568481,142.730743 C157.143433,142.813644 168.751770,142.374207 180.283264,143.122269 C190.057007,143.756302 199.728394,145.863831 209.470230,147.125076 C218.340271,148.273483 227.305771,148.791168 236.116837,150.260590 C246.168869,151.936951 256.094604,154.368362 266.081573,156.441132 C267.048279,156.641785 268.059601,156.627533 269.027527,156.711090 C269.027527,151.738892 269.027527,146.845718 269.062683,141.111938 C267.131897,137.906204 265.530029,135.039444 263.118103,133.288666 C259.082001,130.358932 254.528885,128.141495 250.105560,125.320709 C249.010086,124.346153 248.002426,123.675148 246.997375,123.002075 C247.000000,123.000000 246.995758,123.005539 246.976349,122.626678 C245.600281,121.870949 244.243591,121.494095 242.943451,121.058624 C243.000000,121.000000 242.886703,121.117050 242.915253,120.786636 C242.341553,119.938362 241.739304,119.420502 241.104706,118.902626 C241.072342,118.902603 241.092163,118.840996 240.966003,118.513145 C239.266739,117.763237 237.693619,117.341171 235.967987,116.601631 C230.709259,113.995064 227.821335,109.539955 224.921600,104.662430 C224.751068,100.899345 224.564896,97.585472 224.680344,94.252823 C225.667587,93.694923 226.362885,93.167580 227.037094,92.614510 C229.387299,90.686600 231.486435,87.650917 234.130875,87.064316 C238.504120,86.094223 243.228516,86.738899 247.800446,86.576401 C248.195099,86.562370 248.556168,85.604141 249.083130,85.396240 C252.659836,86.927696 256.037292,88.322311 259.531250,89.300888 C261.592468,89.878204 263.838348,89.796371 266.234680,90.153175 C267.308472,91.210472 268.148773,92.125572 269.183167,93.230270 C269.556366,93.445602 269.735443,93.471336 270.206360,93.675781 C271.987152,93.530060 273.476105,93.205612 275.282745,93.105469 C276.374542,93.296814 277.148682,93.263863 278.047943,93.473038 C278.780121,93.470917 279.387115,93.226662 280.168793,93.060837 C280.343445,93.139275 280.726288,93.144691 280.819336,93.499176 C282.961823,96.530510 292.620667,100.758858 296.344055,100.502586 C297.570038,100.813461 298.500244,101.101448 299.607056,101.679184 C300.452606,102.867073 301.121552,103.765213 301.656281,104.483139 C302.786011,104.028084 303.831360,103.607010 305.054535,103.516457 C306.851166,103.476982 308.470032,103.106987 310.088867,102.736984 C311.744812,103.542358 313.400726,104.347733 315.500366,105.519211 C316.641235,106.213478 317.338409,106.541641 318.035583,106.869797 C318.457489,106.949890 318.879425,107.029991 319.501099,107.514206 C328.135193,111.384979 336.572998,114.843178 344.996643,118.335526 C345.623779,118.595535 346.585327,119.037674 346.652374,119.501900 C347.149200,122.941208 349.168213,121.633324 350.993805,121.021446 C354.492462,126.420029 361.008301,126.315849 365.956207,129.085983 C371.369873,132.116882 377.205872,134.459259 383.005585,136.723083 C405.674500,145.571457 428.385498,154.313049 451.122070,162.986282 C455.380859,164.610855 459.828949,165.739288 464.800903,167.390793 C467.265930,168.307358 469.119690,168.929825 471.255280,169.767975 C473.661438,170.285629 475.785736,170.587570 478.187653,170.967316 C478.845825,171.038803 479.226379,171.032486 479.798096,171.355621 C480.960632,171.760590 481.932068,171.836121 483.234741,171.982178 C483.976685,171.418381 484.387299,170.784012 484.946411,169.882385 C486.241791,169.464447 487.388702,169.313751 488.535645,169.163071 C488.623993,168.743362 488.712311,168.323654 488.800659,167.903946 C486.236603,167.581848 483.672546,167.259750 481.002472,166.689911 C480.597107,166.257278 480.297791,166.072388 480.011719,165.513382 C477.893402,160.325089 475.823822,155.481064 473.543274,150.738495 C473.288818,150.209244 471.835541,150.256424 470.700775,150.109802 C470.171814,150.383072 469.999329,150.657639 469.973602,151.006516 C470.001343,151.006012 469.981812,150.954056 469.740234,150.915436 C469.498688,150.876831 469.040955,150.703217 469.037659,150.525757 C469.034363,150.348297 468.912903,150.014725 468.914734,149.681381 C469.259338,148.554810 469.602112,147.761566 470.186096,146.787094 C471.136780,145.642715 471.846222,144.679565 472.555695,143.716415 C472.555695,143.716415 472.882385,143.915863 472.917114,144.450562 C476.375885,150.571167 476.746216,150.830719 480.019897,149.939285 C480.627502,150.127960 481.330139,150.179398 481.829010,150.524994 C506.588013,167.676193 533.939819,179.329849 562.718262,189.183945 C563.468384,190.171997 563.868774,190.668182 564.386292,190.947098 C568.596252,193.215897 569.944519,197.184692 568.556763,201.148727 C567.936401,202.920578 564.313782,204.400146 561.921997,204.627441 C557.586426,205.039429 553.152283,204.414093 548.759277,204.221771 C539.409668,200.747955 530.299805,196.128342 520.646057,194.108154 C510.044830,191.889725 499.184784,191.324799 487.974060,193.048447 C476.053955,194.881195 465.240814,199.069046 454.214020,203.206451 C449.278778,205.058212 447.375366,208.515594 447.659607,213.547760 C447.809875,216.208618 447.992554,218.882797 447.859406,221.535828 C447.815887,222.402756 446.821259,223.221954 446.261597,224.062988 C445.546753,223.307358 444.354431,222.635315 444.204803,221.780716 C443.719116,219.006836 444.042145,216.031631 443.212433,213.399078 C442.673004,211.687485 440.934143,209.734940 439.272980,209.107788 C433.466797,206.915726 430.168671,197.597839 434.534424,193.004028 C437.781372,189.587433 441.050598,186.119370 446.896790,185.478058 C455.290955,184.557236 463.466492,181.643509 471.735352,179.580536 C471.834869,179.108292 471.934357,178.636032 472.033875,178.163788 C463.183838,175.531586 454.356506,172.819855 445.478516,170.285583 C431.662903,166.341812 417.801208,162.559769 403.980530,158.633499 C388.251221,154.165009 372.508484,149.737518 356.840637,145.060913 C342.819794,140.875885 328.924896,136.269302 314.906525,132.075638 C310.202393,130.668381 305.289307,129.959518 300.471741,128.931427 C300.302155,129.304932 300.132538,129.678452 299.962921,130.051956 C307.379120,136.329407 314.795288,142.606857 322.640686,149.296997 C324.973236,151.258087 326.876617,152.806458 328.779968,154.354843 C329.061676,154.773651 329.343384,155.192444 329.771301,156.131561 C330.282776,156.745499 330.648041,156.839111 331.013275,156.932724 C331.013275,156.932724 331.340515,157.202759 331.707062,157.479279 C333.556671,159.221939 334.942383,160.805359 336.541077,162.132233 C341.322205,166.100449 346.186707,169.968262 351.018646,173.875275 C352.105896,174.230453 353.193176,174.585648 354.606384,175.326324 C354.922668,178.006378 362.173889,186.490128 364.321655,186.631668 C364.529205,186.645340 364.767670,186.190094 364.991760,185.952515 C366.281128,186.046005 367.570496,186.139496 369.512878,186.280350 C368.608307,188.230316 367.911194,189.733124 367.759888,190.059280 C369.586731,193.754654 371.988525,196.681931 372.337311,199.836243 C372.722229,203.317535 372.302338,207.843399 370.304749,210.418488 C366.937805,214.758850 366.950073,219.200378 367.149536,223.962189 C367.421051,230.442230 367.970276,236.913483 368.094025,243.394348 C368.116791,244.585114 366.681030,245.803711 365.918518,247.009460 C365.337372,245.719528 364.330994,244.457703 364.243591,243.135147 C363.644714,234.072433 363.238464,224.996948 361.614105,215.871185 C361.397034,218.892593 361.179932,221.913986 360.962860,224.935379 C360.561554,224.974243 360.160248,225.013092 359.758972,225.051956 C359.277039,224.131866 358.314941,223.172058 358.387299,222.297852 C359.132385,213.291977 352.983063,209.030075 346.841461,204.331604 C330.264343,191.649750 310.722260,185.513123 291.337311,179.405167 C273.436981,173.764999 254.737747,171.446503 235.994583,170.218643 C221.570206,169.273727 207.130737,168.475403 192.685410,167.974579 C186.737991,167.768387 180.757629,168.512680 174.202332,168.636200 C169.728653,168.994873 165.844864,169.542007 161.961090,170.089127 C161.526489,170.187607 161.091904,170.286087 160.190460,170.118378 C155.153320,170.222992 150.583054,170.593750 145.554596,170.975433 C139.663208,171.570953 134.133499,171.711960 128.824432,172.867126 C123.702347,173.981613 118.887894,174.360199 113.579269,173.882294 C110.938591,173.644562 104.484917,173.818222 104.077301,180.021698 C104.154648,191.314514 104.238182,202.607285 104.301079,213.900177 C104.308472,215.226227 104.500610,216.664963 104.057350,217.844955 C103.681389,218.845810 102.510605,219.548096 101.691528,220.382507 C101.143822,219.484772 100.161430,218.608459 100.115936,217.685959 C99.682304,208.893738 99.469101,200.090729 99.042183,191.298096 C98.939629,189.185974 98.278870,187.100937 96.883430,185.112808 C96.883430,191.657288 96.868912,198.201843 96.895523,204.746216 C96.900917,206.074463 97.391869,207.493576 97.056732,208.704056 C96.727127,209.894531 95.631859,210.873032 94.872574,211.944550 C94.137436,211.029327 92.836998,210.160751 92.757004,209.191467 C92.143509,201.757050 91.759628,194.303497 91.326462,186.854599 C91.268661,185.860535 91.334526,184.859283 91.413391,183.010269 C90.936470,175.970657 89.697784,174.961349 83.460648,175.274231 C82.349693,175.329971 81.208832,174.789536 79.842491,174.275269 C78.448013,173.600052 77.292824,173.173965 76.137634,172.747864 C77.394196,169.351410 75.427834,169.640442 73.143829,169.969498 C72.847305,170.012222 72.349937,168.660812 72.084183,167.723419 C72.151016,167.326584 72.079254,167.161484 71.999741,166.663696 C71.988892,165.887772 71.985786,165.444550 72.313866,165.009644 C73.519630,164.826157 75.070450,164.801270 75.165329,164.416962 C76.247566,160.033188 77.107803,155.594620 78.379448,151.033844 C80.595688,149.695724 82.459793,148.494446 84.630699,147.270844 C88.620621,145.336197 92.303757,143.423889 96.393616,141.538544 C103.540970,141.660431 110.281586,141.755356 117.022202,141.850281 M312.359802,169.798340 C312.996368,169.897491 313.633759,169.991821 314.269379,170.096680 C316.000916,170.382355 317.731659,170.672440 319.462738,170.960770 C318.467804,169.509659 317.573883,167.970688 316.426666,166.652054 C315.986725,166.146378 314.968658,166.143616 314.057251,165.202408 C312.445618,164.101242 310.833954,163.000076 308.997467,161.277328 C307.993500,160.893250 306.989532,160.509171 305.416138,159.718811 C295.202728,152.876663 284.989349,146.034531 274.222382,138.821533 C274.222382,145.210358 274.058044,150.197678 274.332428,155.160767 C274.405426,156.480804 275.568634,158.520020 276.667908,158.874298 C282.704224,160.819748 288.876190,162.344238 295.345337,164.348114 C295.345337,164.348114 295.823059,164.393997 296.320404,164.840652 C297.201141,164.934006 298.081909,165.027374 299.396912,165.626511 C300.961639,165.768097 302.526367,165.909698 304.551514,166.013931 C304.551514,166.013931 305.013031,165.994705 305.244598,166.624115 C306.151611,166.942032 307.058594,167.259949 308.345856,168.250656 C309.543274,168.577621 310.740723,168.904572 312.359802,169.798340 M558.404907,203.473984 C558.404907,203.473984 558.621643,203.594879 558.621643,203.594879 C558.621643,203.594879 558.588928,203.356766 558.404907,203.473984 M488.473602,171.598160 C488.473602,171.598160 488.394897,171.477386 488.473602,171.598160 z"/>
</svg>
